# 3ds Max Wavefront OBJ Exporter v0.97b - (c)2007 guruware
# File Created: 13.04.2021 16:41:34

mtllib shadow_volume_test.mtl

#
# object Plane001
#

v  -50.000000 50.000000 0.000000
v  -50.000000 -50.000000 0.000000
v  50.000000 50.000000 0.000000
v  50.000000 -50.000000 0.000000
# 4 vertices

vn 0.000000 0.000000 1.000000
vn 0.000000 0.000000 1.000000
vn 0.000000 0.000000 1.000000
vn 0.000000 0.000000 1.000000
vn 0.000000 0.000000 1.000000
vn 0.000000 0.000000 1.000000
# 6 vertex normals

vt 0.000000 1.000000 0.000000
vt 0.000000 0.000000 0.000000
vt 1.000000 1.000000 0.000000
vt 1.000000 0.000000 0.000000
# 4 texture coords

o Plane001
g Plane001
usemtl wire_228153184
s 1
f 1/1/1 2/2/2 3/3/3 
f 4/4/4 3/3/5 2/2/6 
# 2 faces

#
# object GeoSphere001
#

v  0.000000 0.000000 30.000000
v  8.944272 0.000000 24.472137
v  2.763932 8.506509 24.472137
v  -7.236068 5.257310 24.472137
v  -7.236068 -5.257312 24.472137
v  2.763933 -8.506508 24.472137
v  7.236068 -5.257311 15.527864
v  7.236068 5.257311 15.527864
v  -2.763932 8.506508 15.527864
v  -8.944272 -0.000001 15.527864
v  -2.763929 -8.506509 15.527864
v  0.000000 0.000000 10.000000
# 12 vertices

vn 0.491123 0.356822 0.794654
vn 0.491123 0.356822 0.794654
vn 0.491123 0.356822 0.794654
vn -0.187593 0.577350 0.794654
vn -0.187593 0.577350 0.794654
vn -0.187593 0.577350 0.794654
vn -0.607062 -0.000000 0.794654
vn -0.607062 -0.000000 0.794654
vn -0.607062 -0.000000 0.794654
vn -0.187592 -0.577350 0.794654
vn -0.187592 -0.577350 0.794654
vn -0.187592 -0.577350 0.794654
vn 0.491123 -0.356822 0.794654
vn 0.491123 -0.356822 0.794654
vn 0.491123 -0.356822 0.794654
vn 0.982247 -0.000000 -0.187592
vn 0.982247 -0.000000 -0.187592
vn 0.982247 -0.000000 -0.187592
vn 0.303531 0.934172 -0.187593
vn 0.303531 0.934172 -0.187593
vn 0.303531 0.934172 -0.187593
vn -0.794654 0.577350 -0.187592
vn -0.794654 0.577350 -0.187592
vn -0.794654 0.577350 -0.187592
vn -0.794654 -0.577350 -0.187593
vn -0.794654 -0.577350 -0.187593
vn -0.794654 -0.577350 -0.187593
vn 0.303531 -0.934172 -0.187592
vn 0.303531 -0.934172 -0.187592
vn 0.303531 -0.934172 -0.187592
vn 0.794654 0.577350 0.187593
vn 0.794654 0.577350 0.187593
vn 0.794654 0.577350 0.187593
vn -0.303531 0.934172 0.187592
vn -0.303531 0.934172 0.187592
vn -0.303531 0.934172 0.187592
vn -0.982247 -0.000000 0.187592
vn -0.982247 -0.000000 0.187592
vn -0.982247 -0.000000 0.187592
vn -0.303531 -0.934172 0.187592
vn -0.303531 -0.934172 0.187592
vn -0.303531 -0.934172 0.187592
vn 0.794655 -0.577350 0.187592
vn 0.794655 -0.577350 0.187592
vn 0.794655 -0.577350 0.187592
vn 0.187592 0.577350 -0.794654
vn 0.187592 0.577350 -0.794654
vn 0.187592 0.577350 -0.794654
vn -0.491124 0.356822 -0.794654
vn -0.491124 0.356822 -0.794654
vn -0.491124 0.356822 -0.794654
vn -0.491123 -0.356822 -0.794654
vn -0.491123 -0.356822 -0.794654
vn -0.491123 -0.356822 -0.794654
vn 0.187593 -0.577350 -0.794654
vn 0.187593 -0.577350 -0.794654
vn 0.187593 -0.577350 -0.794654
vn 0.607062 -0.000000 -0.794654
vn 0.607062 -0.000000 -0.794654
vn 0.607062 -0.000000 -0.794654
# 60 vertex normals

vt 0.600000 1.000000 1.000000
vt 0.500000 0.647584 1.000000
vt 0.700000 0.647584 1.000000
vt 0.800000 1.000000 1.000000
vt 0.900000 0.647584 1.000000
vt 0.000000 1.000000 1.000000
vt -0.100000 0.647584 1.000000
vt 0.100000 0.647584 1.000000
vt 0.200000 1.000000 1.000000
vt 0.300000 0.647584 1.000000
vt 0.400000 1.000000 1.000000
vt 0.400000 0.352416 1.000000
vt 0.600000 0.352416 1.000000
vt 0.800000 0.352416 1.000000
vt -0.200000 0.352416 1.000000
vt 0.000000 0.352416 1.000000
vt 0.200000 0.352416 1.000000
vt 0.700000 0.000000 1.000000
vt -0.100000 0.000000 1.000000
vt 0.100000 0.000000 1.000000
vt 0.300000 0.000000 1.000000
vt 0.500000 0.000000 1.000000
# 22 texture coords

o GeoSphere001
g GeoSphere001
usemtl wire_176026026
s off
f 5/5/7 6/6/8 7/7/9 
f 5/8/10 7/7/11 8/9/12 
f 5/10/13 8/11/14 9/12/15 
f 5/13/16 9/12/17 10/14/18 
f 5/15/19 10/14/20 6/6/21 
f 6/6/22 11/16/23 12/17/24 
f 7/7/25 12/17/26 13/18/27 
f 8/11/28 13/19/29 14/20/30 
f 9/12/31 14/20/32 15/21/33 
f 10/14/34 15/21/35 11/16/36 
f 12/17/37 7/7/38 6/6/39 
f 13/18/40 8/9/41 7/7/42 
f 14/20/43 9/12/44 8/11/45 
f 15/21/46 10/14/47 9/12/48 
f 11/16/49 6/6/50 10/14/51 
f 16/22/52 13/18/53 12/17/54 
f 16/23/55 14/20/56 13/19/57 
f 16/24/58 15/21/59 14/20/60 
f 16/25/61 11/16/62 15/21/63 
f 16/26/64 12/17/65 11/16/66 
# 20 faces

